<svg id="visual" viewBox="0 0 900 600" width="900" height="600" xmlns="http://www.w3.org/2000/svg" xmlns:xlink="http://www.w3.org/1999/xlink" version="1.1"><rect x="0" y="0" width="900" height="600" fill="#001220"></rect><path d="M0 410L21.5 412.8C43 415.7 86 421.3 128.8 424C171.7 426.7 214.3 426.3 257.2 427.5C300 428.7 343 431.3 385.8 423.2C428.7 415 471.3 396 514.2 389.3C557 382.7 600 388.3 642.8 389.2C685.7 390 728.3 386 771.2 388.2C814 390.3 857 398.7 878.5 402.8L900 407L900 601L878.5 601C857 601 814 601 771.2 601C728.3 601 685.7 601 642.8 601C600 601 557 601 514.2 601C471.3 601 428.7 601 385.8 601C343 601 300 601 257.2 601C214.3 601 171.7 601 128.8 601C86 601 43 601 21.5 601L0 601Z" fill="#fa7268"></path><path d="M0 428L21.5 432.7C43 437.3 86 446.7 128.8 447.5C171.7 448.3 214.3 440.7 257.2 437.5C300 434.3 343 435.7 385.8 437.8C428.7 440 471.3 443 514.2 442C557 441 600 436 642.8 432.3C685.7 428.7 728.3 426.3 771.2 425.3C814 424.3 857 424.7 878.5 424.8L900 425L900 601L878.5 601C857 601 814 601 771.2 601C728.3 601 685.7 601 642.8 601C600 601 557 601 514.2 601C471.3 601 428.7 601 385.8 601C343 601 300 601 257.2 601C214.3 601 171.7 601 128.8 601C86 601 43 601 21.5 601L0 601Z" fill="#eb5967"></path><path d="M0 496L21.5 498.7C43 501.3 86 506.7 128.8 507.3C171.7 508 214.3 504 257.2 501.2C300 498.3 343 496.7 385.8 494.5C428.7 492.3 471.3 489.7 514.2 486.3C557 483 600 479 642.8 483.8C685.7 488.7 728.3 502.3 771.2 504.2C814 506 857 496 878.5 491L900 486L900 601L878.5 601C857 601 814 601 771.2 601C728.3 601 685.7 601 642.8 601C600 601 557 601 514.2 601C471.3 601 428.7 601 385.8 601C343 601 300 601 257.2 601C214.3 601 171.7 601 128.8 601C86 601 43 601 21.5 601L0 601Z" fill="#da3f67"></path><path d="M0 542L21.5 539.7C43 537.3 86 532.7 128.8 534.3C171.7 536 214.3 544 257.2 546.2C300 548.3 343 544.7 385.8 544.8C428.7 545 471.3 549 514.2 549C557 549 600 545 642.8 545C685.7 545 728.3 549 771.2 546.3C814 543.7 857 534.3 878.5 529.7L900 525L900 601L878.5 601C857 601 814 601 771.2 601C728.3 601 685.7 601 642.8 601C600 601 557 601 514.2 601C471.3 601 428.7 601 385.8 601C343 601 300 601 257.2 601C214.3 601 171.7 601 128.8 601C86 601 43 601 21.5 601L0 601Z" fill="#c62368"></path></svg>